<mxfile host="app.diagrams.net" modified="2021-10-28T11:04:01.104Z" agent="5.0 (Macintosh; Intel Mac OS X 10_15_7) AppleWebKit/537.36 (KHTML, like Gecko) Chrome/95.0.4638.54 Safari/537.36" etag="8YzUlk9VCiw7alZzj3eH" version="15.6.0" type="github">
  <diagram id="apIW8iKadIbED9XqzVE-" name="Page-1">
    <mxGraphModel dx="2066" dy="994" grid="1" gridSize="10" guides="1" tooltips="1" connect="1" arrows="1" fold="1" page="1" pageScale="1" pageWidth="827" pageHeight="1169" math="0" shadow="0">
      <root>
        <mxCell id="0" />
        <mxCell id="1" parent="0" />
        <mxCell id="F3Vqj-18aOBOU162DJYH-1" value="" style="edgeStyle=orthogonalEdgeStyle;rounded=0;orthogonalLoop=1;jettySize=auto;html=1;" edge="1" parent="1" source="F3Vqj-18aOBOU162DJYH-2">
          <mxGeometry relative="1" as="geometry">
            <mxPoint x="370" y="150" as="targetPoint" />
          </mxGeometry>
        </mxCell>
        <mxCell id="F3Vqj-18aOBOU162DJYH-2" value="开始" style="rounded=1;whiteSpace=wrap;html=1;fontSize=12;glass=0;strokeWidth=1;shadow=0;" vertex="1" parent="1">
          <mxGeometry x="310" y="70" width="120" height="40" as="geometry" />
        </mxCell>
        <mxCell id="F3Vqj-18aOBOU162DJYH-3" value="" style="edgeStyle=orthogonalEdgeStyle;rounded=0;orthogonalLoop=1;jettySize=auto;html=1;" edge="1" parent="1" source="F3Vqj-18aOBOU162DJYH-4" target="F3Vqj-18aOBOU162DJYH-6">
          <mxGeometry relative="1" as="geometry" />
        </mxCell>
        <mxCell id="F3Vqj-18aOBOU162DJYH-4" value="获取&lt;b&gt;fund侧&lt;/b&gt;的对账结果数据（查库）" style="shape=process;whiteSpace=wrap;html=1;backgroundOutline=1;" vertex="1" parent="1">
          <mxGeometry x="300" y="150" width="140" height="60" as="geometry" />
        </mxCell>
        <mxCell id="F3Vqj-18aOBOU162DJYH-46" value="" style="edgeStyle=orthogonalEdgeStyle;rounded=0;orthogonalLoop=1;jettySize=auto;html=1;" edge="1" parent="1" source="F3Vqj-18aOBOU162DJYH-6" target="F3Vqj-18aOBOU162DJYH-10">
          <mxGeometry relative="1" as="geometry" />
        </mxCell>
        <mxCell id="F3Vqj-18aOBOU162DJYH-6" value="循环处理单条数据" style="shape=process;whiteSpace=wrap;html=1;backgroundOutline=1;" vertex="1" parent="1">
          <mxGeometry x="310" y="260" width="120" height="60" as="geometry" />
        </mxCell>
        <mxCell id="F3Vqj-18aOBOU162DJYH-47" value="" style="edgeStyle=orthogonalEdgeStyle;rounded=0;orthogonalLoop=1;jettySize=auto;html=1;" edge="1" parent="1" source="F3Vqj-18aOBOU162DJYH-10" target="F3Vqj-18aOBOU162DJYH-16">
          <mxGeometry relative="1" as="geometry" />
        </mxCell>
        <mxCell id="F3Vqj-18aOBOU162DJYH-10" value="根据tradeId50编号拿到还款计划等信息" style="rounded=0;whiteSpace=wrap;html=1;" vertex="1" parent="1">
          <mxGeometry x="480" y="260" width="120" height="60" as="geometry" />
        </mxCell>
        <mxCell id="F3Vqj-18aOBOU162DJYH-15" value="" style="edgeStyle=orthogonalEdgeStyle;rounded=0;orthogonalLoop=1;jettySize=auto;html=1;" edge="1" parent="1" source="F3Vqj-18aOBOU162DJYH-16" target="F3Vqj-18aOBOU162DJYH-18">
          <mxGeometry relative="1" as="geometry" />
        </mxCell>
        <mxCell id="F3Vqj-18aOBOU162DJYH-43" value="" style="edgeStyle=orthogonalEdgeStyle;rounded=0;orthogonalLoop=1;jettySize=auto;html=1;dashed=1;dashPattern=1 2;" edge="1" parent="1" source="F3Vqj-18aOBOU162DJYH-18" target="F3Vqj-18aOBOU162DJYH-41">
          <mxGeometry relative="1" as="geometry">
            <mxPoint x="740" y="197.98000000000002" as="sourcePoint" />
          </mxGeometry>
        </mxCell>
        <mxCell id="F3Vqj-18aOBOU162DJYH-44" value="获取财务侧配置" style="edgeLabel;html=1;align=center;verticalAlign=middle;resizable=0;points=[];" vertex="1" connectable="0" parent="F3Vqj-18aOBOU162DJYH-43">
          <mxGeometry x="-0.0545" y="1" relative="1" as="geometry">
            <mxPoint x="-28" y="-7" as="offset" />
          </mxGeometry>
        </mxCell>
        <mxCell id="F3Vqj-18aOBOU162DJYH-16" value="判断资产状态：正常、代偿、附加订单、信托分配" style="shape=process;whiteSpace=wrap;html=1;backgroundOutline=1;" vertex="1" parent="1">
          <mxGeometry x="650" y="260" width="120" height="60" as="geometry" />
        </mxCell>
        <mxCell id="F3Vqj-18aOBOU162DJYH-45" value="" style="edgeStyle=orthogonalEdgeStyle;rounded=0;orthogonalLoop=1;jettySize=auto;html=1;" edge="1" parent="1" source="F3Vqj-18aOBOU162DJYH-18" target="F3Vqj-18aOBOU162DJYH-25">
          <mxGeometry relative="1" as="geometry" />
        </mxCell>
        <mxCell id="F3Vqj-18aOBOU162DJYH-18" value="根据资管状态获得 &lt;b&gt;财务侧&lt;/b&gt; 的支付通道商户号配置" style="whiteSpace=wrap;html=1;" vertex="1" parent="1">
          <mxGeometry x="809.04" y="260" width="120" height="60" as="geometry" />
        </mxCell>
        <mxCell id="F3Vqj-18aOBOU162DJYH-57" value="" style="edgeStyle=orthogonalEdgeStyle;rounded=0;orthogonalLoop=1;jettySize=auto;html=1;" edge="1" parent="1" source="F3Vqj-18aOBOU162DJYH-21" target="F3Vqj-18aOBOU162DJYH-35">
          <mxGeometry relative="1" as="geometry" />
        </mxCell>
        <mxCell id="F3Vqj-18aOBOU162DJYH-21" value="和fund侧提供的数据进行对账得到内部对账结果" style="whiteSpace=wrap;html=1;" vertex="1" parent="1">
          <mxGeometry x="550" y="370" width="120" height="60" as="geometry" />
        </mxCell>
        <mxCell id="F3Vqj-18aOBOU162DJYH-22" value="end" style="ellipse;whiteSpace=wrap;html=1;" vertex="1" parent="1">
          <mxGeometry x="310" y="550" width="120" height="60" as="geometry" />
        </mxCell>
        <mxCell id="F3Vqj-18aOBOU162DJYH-48" value="" style="edgeStyle=orthogonalEdgeStyle;rounded=0;orthogonalLoop=1;jettySize=auto;html=1;" edge="1" parent="1" source="F3Vqj-18aOBOU162DJYH-25" target="F3Vqj-18aOBOU162DJYH-21">
          <mxGeometry relative="1" as="geometry" />
        </mxCell>
        <mxCell id="F3Vqj-18aOBOU162DJYH-25" value="&lt;span&gt;计算用户还款各费用项应进入的子商户号&lt;/span&gt;" style="shape=process;whiteSpace=wrap;html=1;backgroundOutline=1;" vertex="1" parent="1">
          <mxGeometry x="809.04" y="370" width="120" height="60" as="geometry" />
        </mxCell>
        <mxCell id="F3Vqj-18aOBOU162DJYH-42" value="" style="edgeStyle=orthogonalEdgeStyle;rounded=0;orthogonalLoop=1;jettySize=auto;html=1;" edge="1" parent="1" source="F3Vqj-18aOBOU162DJYH-30" target="F3Vqj-18aOBOU162DJYH-41">
          <mxGeometry relative="1" as="geometry" />
        </mxCell>
        <mxCell id="F3Vqj-18aOBOU162DJYH-30" value="调取&lt;b&gt;财务侧 接口&lt;/b&gt;，一次性获取所有配置" style="rounded=0;whiteSpace=wrap;html=1;" vertex="1" parent="1">
          <mxGeometry x="809.04" y="30" width="120" height="60" as="geometry" />
        </mxCell>
        <mxCell id="F3Vqj-18aOBOU162DJYH-55" value="" style="edgeStyle=orthogonalEdgeStyle;rounded=0;orthogonalLoop=1;jettySize=auto;html=1;dashed=1;" edge="1" parent="1" source="F3Vqj-18aOBOU162DJYH-33" target="F3Vqj-18aOBOU162DJYH-2">
          <mxGeometry relative="1" as="geometry" />
        </mxCell>
        <mxCell id="F3Vqj-18aOBOU162DJYH-33" value="对账触发条件：&lt;br&gt;1、fund侧对完账后的MQ通知&lt;br&gt;&lt;div&gt;2、提供接口供财务调用重新对账&lt;/div&gt;&lt;div&gt;3、job手动触发+xdiamond指定参数对账&lt;/div&gt;" style="shape=document;whiteSpace=wrap;html=1;boundedLbl=1;align=left;" vertex="1" parent="1">
          <mxGeometry x="510" y="20" width="240" height="140" as="geometry" />
        </mxCell>
        <mxCell id="F3Vqj-18aOBOU162DJYH-53" value="" style="edgeStyle=orthogonalEdgeStyle;rounded=0;orthogonalLoop=1;jettySize=auto;html=1;" edge="1" parent="1" source="F3Vqj-18aOBOU162DJYH-35" target="F3Vqj-18aOBOU162DJYH-52">
          <mxGeometry relative="1" as="geometry" />
        </mxCell>
        <mxCell id="F3Vqj-18aOBOU162DJYH-35" value="复制历史的处理信息过来，比如标记为忽略等" style="rounded=0;whiteSpace=wrap;html=1;" vertex="1" parent="1">
          <mxGeometry x="310" y="370" width="120" height="60" as="geometry" />
        </mxCell>
        <mxCell id="F3Vqj-18aOBOU162DJYH-61" value="" style="edgeStyle=orthogonalEdgeStyle;rounded=0;orthogonalLoop=1;jettySize=auto;html=1;dashed=1;" edge="1" parent="1" source="F3Vqj-18aOBOU162DJYH-37" target="F3Vqj-18aOBOU162DJYH-4">
          <mxGeometry relative="1" as="geometry" />
        </mxCell>
        <mxCell id="F3Vqj-18aOBOU162DJYH-37" value="mq入口处：通过reidsdionLock+业务查询进行重复消息拦截" style="shape=document;whiteSpace=wrap;html=1;boundedLbl=1;" vertex="1" parent="1">
          <mxGeometry x="540" y="150" width="140" height="70" as="geometry" />
        </mxCell>
        <mxCell id="F3Vqj-18aOBOU162DJYH-41" value="FinancialChannel&lt;br&gt;DataCheckConfigHolder工具类" style="rounded=0;whiteSpace=wrap;html=1;" vertex="1" parent="1">
          <mxGeometry x="789.04" y="120" width="160" height="70" as="geometry" />
        </mxCell>
        <mxCell id="F3Vqj-18aOBOU162DJYH-59" style="edgeStyle=orthogonalEdgeStyle;rounded=0;orthogonalLoop=1;jettySize=auto;html=1;entryX=1;entryY=0.5;entryDx=0;entryDy=0;" edge="1" parent="1" source="F3Vqj-18aOBOU162DJYH-49" target="F3Vqj-18aOBOU162DJYH-22">
          <mxGeometry relative="1" as="geometry">
            <Array as="points">
              <mxPoint x="610" y="580" />
            </Array>
          </mxGeometry>
        </mxCell>
        <mxCell id="F3Vqj-18aOBOU162DJYH-49" value="汇总对账明细并入库" style="rounded=0;whiteSpace=wrap;html=1;" vertex="1" parent="1">
          <mxGeometry x="540" y="470" width="120" height="40" as="geometry" />
        </mxCell>
        <mxCell id="F3Vqj-18aOBOU162DJYH-58" value="" style="edgeStyle=orthogonalEdgeStyle;rounded=0;orthogonalLoop=1;jettySize=auto;html=1;" edge="1" parent="1" source="F3Vqj-18aOBOU162DJYH-52" target="F3Vqj-18aOBOU162DJYH-49">
          <mxGeometry relative="1" as="geometry" />
        </mxCell>
        <mxCell id="F3Vqj-18aOBOU162DJYH-52" value="批量入库对账明细" style="whiteSpace=wrap;html=1;rounded=0;" vertex="1" parent="1">
          <mxGeometry x="310" y="460" width="120" height="60" as="geometry" />
        </mxCell>
        <mxCell id="F3Vqj-18aOBOU162DJYH-84" value="循环Loop" style="swimlane;horizontal=0;fillColor=#f8cecc;strokeColor=#b85450;strokeWidth=4;glass=0;shadow=0;startSize=30;" vertex="1" parent="1">
          <mxGeometry x="250" y="240" width="730" height="210" as="geometry" />
        </mxCell>
      </root>
    </mxGraphModel>
  </diagram>
</mxfile>
